<svg viewBox="0 0 1417 318" xmlns="http://www.w3.org/2000/svg">
  <g stroke="none" stroke-width="0" fill="none" fill-rule="evenodd">
    <path d="M1369.0562,264.9102 C1342.5062,297.8052 1298.6542,305.8862 1258.2502,308.1892 L1055.7002,308.1892 C1025.6892,307.0342 999.1432,305.8862 974.9042,282.2202 C972.0192,297.8052 951.2492,308.1892 933.3552,308.1892 L442.2562,308.1892 C420.9062,308.1892 388.0112,304.1492 370.1162,285.1052 C349.3472,305.3052 273.1652,308.1892 258.7392,308.1892 L146.2122,308.1892 C94.8522,307.6152 52.7202,298.3762 23.8682,251.6392 C9.4412,223.9332 8.2852,199.6952 13.4832,170.2692 C20.4082,129.2932 40.0252,48.4982 40.0252,48.4982 C49.8342,21.9562 72.9162,8.6812 109.2782,8.6812 L168.7142,8.6812 C206.2302,8.6812 207.9592,28.3002 206.2302,35.8072 C251.2382,1.7592 360.8872,-0.5528 407.6252,30.6122 C436.4872,9.8362 476.3072,9.2592 508.0462,8.6812 L1277.3032,8.6812 C1373.0982,6.3732 1404.8362,42.7252 1407.7202,91.2032 C1407.7202,91.2032 1412.9172,131.0222 1392.7122,166.2282 C1394.4492,195.0802 1392.1362,233.7452 1369.0562,264.9102" fill="#ED1C24"></path>
    <path d="M31.9502,247.0156 C58.4912,289.1466 97.1572,297.8046 146.2122,298.3756 L258.7392,298.3756 C293.3692,297.8046 349.3472,292.0306 363.7722,277.6056 L370.6982,270.6806 L377.0452,277.6056 C394.3562,295.4896 427.2492,297.8046 440.5282,297.8046 L442.2562,297.8046 L933.9282,297.8046 C947.7792,297.8046 963.9372,289.7206 966.2472,279.3356 L969.1322,261.4426 L981.8292,274.1396 C1003.7572,295.4896 1027.9922,296.6446 1056.2742,297.2206 L1258.8322,297.2206 C1292.8832,295.4896 1336.1622,289.1466 1362.1272,257.4096 C1382.9082,229.1296 1385.2122,192.1956 1383.4832,166.2286 L1383.4832,163.3416 L1385.2122,161.0306 C1403.6812,129.2936 1399.0632,92.3586 1399.0632,91.7846 L1399.0632,91.2026 C1397.3332,59.4636 1384.0572,17.3366 1287.1142,17.3366 L1278.4582,17.3366 L505.7352,17.3366 C475.7262,17.9136 438.2162,18.4966 412.8222,36.9556 L407.6252,40.9966 L401.8562,37.5366 C382.8162,24.8416 349.3472,17.3366 312.4122,17.3366 C270.8632,17.3366 232.1972,27.1526 211.4192,42.7256 L190.0662,58.8906 L196.4192,32.9216 C196.4192,32.3406 197.5752,28.8816 194.6912,25.4156 C190.6472,20.8006 181.4112,17.9136 168.1402,17.9136 L108.1222,17.9136 C76.9602,17.9136 57.3362,28.8816 49.2602,50.8086 C47.5312,58.3076 29.6372,133.3336 23.2932,171.4176 C16.9422,203.1616 19.8262,223.9326 31.9502,247.0156 M258.7392,317.4256 L146.2122,317.4256 C97.7382,316.8446 48.6792,309.3446 15.7862,256.8276 L15.2122,256.2526 C1.3592,229.1296 -2.0988,204.3186 3.6712,169.1126 C10.5972,128.7196 29.0632,50.2346 30.2112,46.7676 L30.7932,45.6116 C42.3352,15.0286 67.7282,0.0246 108.1222,0.0246 L168.1402,0.0246 C187.7632,0.0246 201.6072,5.2176 209.1162,15.0286 C210.8452,16.7636 212.0002,19.0706 212.5742,20.8006 C237.3862,7.5296 273.1652,0.0246 311.8292,0.0246 C349.3472,0.0246 383.3972,7.5296 405.8962,20.2266 C435.9062,1.1816 473.9952,0.6036 504.5792,0.6036 L506.3162,0.6036 L1277.3032,0.6036 L1285.9562,0.6036 C1369.6302,0.6036 1413.4922,31.1856 1416.9502,92.3586 C1417.5322,96.9736 1420.9922,135.0636 1401.9472,170.2686 C1404.2622,210.6626 1395.5972,245.8686 1376.5572,271.2536 C1345.3902,309.3446 1294.6122,316.2706 1258.8322,317.9996 L1055.7002,317.9996 C1029.1502,316.8446 1002.6022,315.6896 978.3682,297.8046 C969.1322,310.4996 950.6682,317.9996 933.9282,317.9996 L440.5202,317.9996 C422.6352,317.9996 390.8962,315.1156 369.5412,297.8046 C340.1112,315.1156 273.1652,317.4256 258.7392,317.4256" fill="#000000"></path>
    <path d="M321.6411,160.4561 C318.7561,173.1541 313.5681,182.9671 307.7971,188.7361 C304.3301,192.1951 296.1471,198.7161 287.0181,198.5461 C278.3621,197.3911 272.5911,194.5071 270.2811,187.5811 C267.9771,180.6541 268.5501,170.8431 272.5911,157.5721 C276.0511,145.4491 280.0911,136.2191 284.7051,131.0221 C288.7481,126.9801 292.2151,123.5211 296.8291,121.7921 C297.9871,121.2101 304.9121,120.6371 307.2161,120.6371 C316.4521,121.2101 322.2241,125.8341 323.9541,133.3341 C325.6841,139.6781 325.1091,148.3351 321.6411,160.4561 M1303.2681,48.5051 L1198.8171,48.5051 C1191.3151,48.5051 1185.5361,50.2341 1181.5031,53.6931 C1176.8831,50.2341 1171.6931,48.5051 1165.9241,48.5051 L1117.4471,48.5051 C1082.2431,48.5051 1059.1591,52.5381 1037.2341,68.1211 C1034.3491,54.8491 1026.2631,48.5051 1012.9941,48.5051 L984.1401,48.5051 C966.8221,48.5051 958.7471,56.0041 952.3931,70.4311 L928.1581,118.9061 L925.2731,72.7431 C924.1251,56.5791 915.4691,48.5051 901.0341,48.5051 L862.3691,48.5051 C850.8291,48.5051 842.1731,55.4231 835.2461,69.8571 L811.5901,118.9061 L807.5481,73.8911 C805.2451,56.5791 796.5901,48.5051 782.1541,48.5051 L745.8041,48.5051 C729.6461,48.5051 720.9911,63.5061 723.8751,79.6611 L739.4561,211.8181 L711.1801,72.1621 C706.5661,54.2751 699.6351,49.0791 685.7851,48.5051 L648.8501,48.5051 C630.9651,48.5051 627.4981,54.8491 618.8411,69.2761 L540.3561,195.0811 C538.6291,193.3511 529.9711,191.6211 522.4711,191.6211 C500.5361,192.1951 483.8061,192.7761 472.8401,191.6211 C467.6451,191.0401 460.7271,189.8851 460.7271,181.8101 C460.1441,174.3091 460.7271,166.2281 463.0301,157.5721 C468.2261,136.2191 467.6451,124.6791 509.2021,124.6791 L542.0961,124.6791 C561.7101,124.6791 570.3651,122.3661 574.9911,105.6301 L580.7601,78.5141 C583.6461,61.7771 574.9911,48.4981 558.8251,48.4981 L499.9651,48.4981 C455.5311,47.9231 422.6351,63.5061 401.8561,94.0871 C388.0111,58.3081 345.3061,42.1531 296.8291,47.9231 C290.5501,48.8531 283.3741,50.9201 275.4771,53.1191 C216.4161,69.5621 186.0271,116.0221 184.2961,192.1951 L136.9761,191.6211 L160.6401,75.6271 C164.0991,60.6211 151.4021,49.0791 138.7061,49.0791 L105.8111,49.0791 C90.8101,48.5051 81.5731,56.0041 78.1151,71.0051 L55.0331,185.2701 C44.6451,235.4741 75.2291,268.3701 126.0091,268.3701 L180.2531,268.3701 C195.8371,267.7961 205.0761,260.8681 207.9591,246.4401 C225.8451,263.7531 252.3951,272.4091 287.0181,270.1061 C291.0841,269.9211 299.4981,268.1151 303.1741,267.3811 C338.5011,261.7551 360.3061,248.7531 378.2011,223.9331 C389.7411,252.2121 412.8221,267.2211 447.4461,267.7961 L572.1021,267.7961 C590.5641,267.7961 592.8751,264.3371 603.2601,247.5981 L616.5371,227.4011 L650.5791,227.4011 L654.6201,247.5981 C657.5051,261.4501 665.5891,267.7961 680.0151,267.7961 L718.6801,267.7961 C731.3751,267.7961 739.4561,262.5971 742.9151,252.2121 C746.3731,262.5971 754.4601,267.7961 767.1551,267.7961 L803.5091,267.7961 C817.3601,267.7961 826.5891,260.2941 832.3631,246.4401 L853.7131,203.7351 L857.1791,245.2851 C858.9081,260.2941 866.9951,267.7961 881.9931,267.7961 L924.1251,267.7961 C935.6651,267.7961 941.4341,260.2941 948.3631,245.8681 L982.4041,181.2281 C981.2551,238.9401 1010.6831,267.7961 1069.5431,267.7961 L1127.2571,267.7961 C1135.9121,268.3701 1141.6841,266.0651 1145.1421,262.5971 C1147.4531,266.0651 1153.2241,267.7961 1160.7271,267.7961 L1251.3271,267.7961 C1341.3581,270.1061 1359.2431,200.8511 1341.9321,161.6111 C1386.9421,111.9811 1365.0161,48.5051 1303.2681,48.5051" fill="#000000"></path>
    <path d="M101.1968,71.5864 L138.1328,71.5864 L117.9348,169.6884 C115.6218,181.8104 113.8918,189.8844 113.8918,193.9254 C113.3198,202.0054 116.2058,207.2044 122.5498,210.6624 C128.3198,213.5484 139.2878,215.2774 154.8698,215.2774 L190.6468,215.2774 L184.2968,245.8684 L144.4758,245.8684 C126.0098,246.4404 112.7378,245.2854 104.6638,242.4004 C86.7698,237.2044 76.9598,225.0894 75.8018,206.0474 C75.8018,199.1204 76.9598,186.9994 80.9998,169.6884 L101.1968,71.5864 Z M528.8149,214.7036 L522.4709,245.2856 L461.8749,245.2856 C450.3309,245.2856 441.6749,244.7106 435.9059,244.1296 C415.1359,239.5146 402.4369,227.4016 397.2419,207.7786 C393.7819,195.0806 394.9369,178.3426 398.3959,159.3006 C403.5919,136.2186 412.2509,116.5956 424.3659,102.1706 C433.0199,91.2036 443.4049,83.7016 455.5309,79.0866 C467.6449,73.8906 482.0779,71.5866 499.3909,71.5866 L558.8249,71.5866 L552.4809,102.7436 L498.2359,102.7436 C481.4969,102.7436 468.2259,107.3666 458.4159,116.0216 C450.9129,122.9496 444.5609,136.7926 440.5199,155.2606 C434.7509,180.6536 436.4869,197.9656 444.5609,206.6206 C450.9129,211.8176 461.2999,214.7036 475.7259,214.7036 L528.8149,214.7036 Z M783.895,71.5864 L795.435,202.5804 L860.066,71.5864 L901.615,71.5864 L910.272,202.5804 L977.213,71.5864 L1014.723,71.5864 L922.389,245.2854 L879.682,245.2854 L870.453,120.0644 L807.548,245.2854 L765.426,245.2854 L745.804,71.5864 L783.895,71.5864 Z M1167.0796,71.5864 L1160.7266,102.7434 L1112.2466,102.7434 C1099.5526,102.7434 1089.7406,103.3254 1083.9726,105.0554 C1077.6276,106.7854 1072.4276,110.2524 1067.2396,115.4404 C1063.7716,118.9064 1061.4696,122.3654 1059.7326,125.2504 C1058.5846,129.2934 1055.6996,135.0634 1053.9616,143.1464 L1151.4946,143.1464 L1145.1416,174.3014 L1047.0446,174.3014 C1045.3086,188.7354 1047.6186,199.6954 1053.3876,205.4654 C1059.7326,211.2364 1071.8536,214.1224 1089.7406,214.1224 L1137.0676,214.1224 L1130.1436,244.7114 L1082.2426,244.7114 C1068.9696,244.7114 1057.4296,244.1294 1047.6186,242.4004 C1032.0336,240.0964 1021.6486,233.1704 1014.7236,221.6314 C1004.9116,206.0474 1003.1836,184.1124 1008.9546,156.4164 C1015.2976,126.4074 1029.1496,102.7434 1051.6576,86.0144 C1059.1586,80.2434 1067.2396,76.2014 1074.7426,74.4724 C1082.2426,72.1614 1092.6276,70.4314 1104.7486,70.4314 L1167.0796,70.4314 L1167.0796,71.5864 Z M643.6606,174.3018 L618.8416,174.3018 L656.3496,113.1358 L668.4746,174.3018 L643.6606,174.3018 Z M686.9396,71.0058 L643.6606,71.5868 L535.1706,245.2848 L578.4496,245.2848 L603.8416,204.8918 L670.2036,204.8918 L678.8596,245.2848 L722.1456,245.2848 L686.9396,71.0058 Z M1300.9565,122.9473 C1299.2275,129.8743 1295.0745,135.4963 1288.8355,140.2593 C1285.8945,142.5043 1274.3975,143.8163 1269.2085,143.7963 C1266.7575,143.7863 1259.4055,143.7203 1259.4055,143.7203 L1219.0125,143.7203 L1227.0945,102.7433 L1259.4055,102.7433 L1278.3335,102.6713 C1287.5745,102.6713 1292.8745,104.4813 1296.3405,107.3663 C1300.9565,110.8253 1302.1115,116.0223 1300.9565,122.9473 Z M1284.8005,193.3503 C1283.4885,201.8443 1275.0205,213.9833 1265.1765,214.7033 C1263.5065,214.8253 1261.7865,215.2023 1259.4055,215.2773 L1253.6375,215.2773 L1203.4335,215.2773 L1211.5125,174.3013 L1259.4055,174.3013 C1259.4055,174.3013 1274.8745,173.7613 1280.1755,177.7683 C1284.7815,181.2513 1285.8715,186.4133 1284.8005,193.3503 M1341.9315,97.5543 C1339.5505,89.0533 1335.3545,81.3963 1328.0805,77.3563 C1321.9795,73.9683 1310.9155,71.5863 1295.3335,71.5863 L1259.4055,71.5863 L1196.5025,71.5863 L1159.5665,245.8683 L1255.9475,245.8683 L1259.4055,245.8683 L1259.4055,245.8663 C1272.6775,245.8663 1282.4895,244.1363 1289.4165,242.4003 C1297.4885,240.0953 1304.4145,234.9003 1310.7675,228.5563 C1317.6955,220.4733 1322.3105,211.2443 1324.6145,199.6943 C1328.6545,180.6533 1323.4645,166.2263 1307.8805,158.7273 C1315.9545,155.2603 1323.6025,150.7603 1329.8105,143.1463 C1336.3025,135.1813 1339.6665,126.2823 1341.9315,117.7513 C1343.8045,110.6973 1343.7515,104.0533 1341.9315,97.5543 Z M340.6851,158.8716 C336.6431,179.0686 329.7151,194.0766 319.9121,203.8876 C314.1341,210.2306 305.4771,214.8456 295.6741,216.5846 C295.6741,216.5846 288.1731,217.5896 282.9761,217.0066 C267.9771,217.0066 257.0091,212.9746 251.8211,203.1616 C247.1991,193.9256 246.0431,178.3426 250.6641,158.1456 C254.7071,139.1036 260.4781,125.2496 267.9771,116.5956 C274.9021,108.5146 284.7151,103.3256 295.6741,101.0126 L299.0771,100.3986 C303.1111,99.8176 303.2621,100.0186 307.8771,100.0186 C325.1881,100.0186 336.0691,106.3536 340.6851,117.9026 C344.1521,127.1326 344.1521,140.9856 340.6851,158.8716 Z M383.9631,115.0106 C381.0761,98.2806 373.0011,86.7406 359.1501,79.2386 C346.4551,74.0426 332.0281,70.5756 314.7151,70.5756 C307.7901,71.1576 302.0181,71.1576 295.6741,71.7306 L295.6741,71.5866 C277.2061,73.8906 261.6251,79.6606 249.5091,88.8986 C229.3121,102.7436 216.0341,126.4076 209.1161,159.3006 C205.0761,177.7686 205.0761,193.9256 208.5331,207.2046 C212.5741,219.8926 220.0761,229.7046 231.0421,236.0556 C243.7401,243.5556 260.4781,247.0156 279.5171,247.0156 C285.2891,247.0156 290.4851,247.0156 295.6741,246.4406 C295.6741,246.4406 307.6221,245.2856 321.0591,239.6666 C338.3711,233.8976 351.6511,222.9286 362.6091,206.7726 C371.8461,194.0766 377.6161,179.0686 381.0761,161.1826 C385.1191,143.8696 386.2751,128.2886 383.9631,115.0106" fill="#FFFFFF"></path>
  </g>
</svg>
